# xmcd
# Track frame offsets:
# 150
# 28470
# 48222
# 64047
# 81922
# 102227
# 123070
# 143677
# 157920
# 175828
# 195197
# 207615
#
# Disc length: 3131 seconds
# Revision: 0
# Processed by: cddbd v1.5.2PL0 Copyright (c) Steve Scherf et al.
# Submitted via: VisiTrax 2.11.0.264 - For more info visit www.synapsa.com
#
DISCID=9b0c390c
DTITLE=West, Kanye - 808s and Heartbreak
DYEAR=1900
DGENRE=R&B
TTITLE0=West, Kanye - Say You Will
TTITLE1=West, Kanye and Kid Cudi - Welcome to Heartbreak
TTITLE2=West, Kanye - Heartless
TTITLE3=Kanye West and Young Jeezy - Amazing
TTITLE4=West, Kanye - Love Lockdown
TTITLE5=West, Kanye and Mr Hudson - Paranoid
TTITLE6=West, Kanye - Robocop
TTITLE7=West, Kanye - Street Lights
TTITLE8=West, Kanye - Bad News
TTITLE9=West, Kanye and Lil Wayne - See You in My Nightmares
TTITLE10=West, Kanye - Coldest Winter
TTITLE11=West, Kanye - Hidden Track
EXTD=
EXTT0=
EXTT1=
EXTT2=
EXTT3=
EXTT4=
EXTT5=
EXTT6=
EXTT7=
EXTT8=
EXTT9=
EXTT10=
EXTT11=
PLAYORDER=
